<mxfile host="app.diagrams.net" agent="Mozilla/5.0 (Macintosh; Intel Mac OS X 10_15_7) AppleWebKit/537.36 (KHTML, like Gecko) Chrome/133.0.0.0 Safari/537.36" version="26.0.16">
  <diagram id="C5RBs43oDa-KdzZeNtuy" name="Page-1">
    <mxGraphModel dx="1434" dy="785" grid="1" gridSize="10" guides="1" tooltips="1" connect="1" arrows="1" fold="1" page="1" pageScale="1" pageWidth="827" pageHeight="1169" math="0" shadow="0">
      <root>
        <mxCell id="WIyWlLk6GJQsqaUBKTNV-0" />
        <mxCell id="WIyWlLk6GJQsqaUBKTNV-1" parent="WIyWlLk6GJQsqaUBKTNV-0" />
        <mxCell id="OYHdjE4W0auB7r-NxQ5Q-20" style="edgeStyle=orthogonalEdgeStyle;rounded=0;orthogonalLoop=1;jettySize=auto;html=1;exitX=0;exitY=1;exitDx=0;exitDy=0;exitPerimeter=0;entryX=0.5;entryY=0;entryDx=0;entryDy=0;" edge="1" parent="WIyWlLk6GJQsqaUBKTNV-1" source="OYHdjE4W0auB7r-NxQ5Q-7" target="OYHdjE4W0auB7r-NxQ5Q-19">
          <mxGeometry relative="1" as="geometry" />
        </mxCell>
        <mxCell id="OYHdjE4W0auB7r-NxQ5Q-7" value="usr&lt;div&gt;&lt;br&gt;&lt;/div&gt;" style="shape=umlActor;verticalLabelPosition=bottom;verticalAlign=top;html=1;outlineConnect=0;" vertex="1" parent="WIyWlLk6GJQsqaUBKTNV-1">
          <mxGeometry x="220" y="110" width="50" height="80" as="geometry" />
        </mxCell>
        <mxCell id="OYHdjE4W0auB7r-NxQ5Q-17" style="edgeStyle=orthogonalEdgeStyle;rounded=0;orthogonalLoop=1;jettySize=auto;html=1;exitX=1;exitY=1;exitDx=0;exitDy=0;entryX=0;entryY=0;entryDx=0;entryDy=0;" edge="1" parent="WIyWlLk6GJQsqaUBKTNV-1" source="OYHdjE4W0auB7r-NxQ5Q-12" target="OYHdjE4W0auB7r-NxQ5Q-16">
          <mxGeometry relative="1" as="geometry" />
        </mxCell>
        <mxCell id="OYHdjE4W0auB7r-NxQ5Q-24" style="edgeStyle=orthogonalEdgeStyle;rounded=0;orthogonalLoop=1;jettySize=auto;html=1;exitX=0.5;exitY=1;exitDx=0;exitDy=0;entryX=0.5;entryY=1;entryDx=0;entryDy=0;" edge="1" parent="WIyWlLk6GJQsqaUBKTNV-1" source="OYHdjE4W0auB7r-NxQ5Q-12" target="OYHdjE4W0auB7r-NxQ5Q-12">
          <mxGeometry relative="1" as="geometry" />
        </mxCell>
        <mxCell id="OYHdjE4W0auB7r-NxQ5Q-28" style="edgeStyle=orthogonalEdgeStyle;rounded=0;orthogonalLoop=1;jettySize=auto;html=1;exitX=0.75;exitY=0;exitDx=0;exitDy=0;" edge="1" parent="WIyWlLk6GJQsqaUBKTNV-1" source="OYHdjE4W0auB7r-NxQ5Q-12" target="OYHdjE4W0auB7r-NxQ5Q-27">
          <mxGeometry relative="1" as="geometry" />
        </mxCell>
        <mxCell id="OYHdjE4W0auB7r-NxQ5Q-12" value="General NL LLM" style="rounded=1;whiteSpace=wrap;html=1;" vertex="1" parent="WIyWlLk6GJQsqaUBKTNV-1">
          <mxGeometry x="360" y="300" width="130" height="60" as="geometry" />
        </mxCell>
        <mxCell id="OYHdjE4W0auB7r-NxQ5Q-13" value="Inventory&lt;div&gt;&lt;br&gt;&lt;/div&gt;" style="shape=cylinder3;whiteSpace=wrap;html=1;boundedLbl=1;backgroundOutline=1;size=15;" vertex="1" parent="WIyWlLk6GJQsqaUBKTNV-1">
          <mxGeometry x="170" y="390" width="60" height="80" as="geometry" />
        </mxCell>
        <mxCell id="OYHdjE4W0auB7r-NxQ5Q-14" value="" style="endArrow=classic;html=1;rounded=0;entryX=-0.015;entryY=0.867;entryDx=0;entryDy=0;entryPerimeter=0;" edge="1" parent="WIyWlLk6GJQsqaUBKTNV-1" target="OYHdjE4W0auB7r-NxQ5Q-12">
          <mxGeometry width="50" height="50" relative="1" as="geometry">
            <mxPoint x="230" y="410" as="sourcePoint" />
            <mxPoint x="280" y="360" as="targetPoint" />
          </mxGeometry>
        </mxCell>
        <mxCell id="OYHdjE4W0auB7r-NxQ5Q-15" value="" style="endArrow=classic;html=1;rounded=0;entryX=0.25;entryY=0;entryDx=0;entryDy=0;exitX=1;exitY=1;exitDx=0;exitDy=0;exitPerimeter=0;" edge="1" parent="WIyWlLk6GJQsqaUBKTNV-1" source="OYHdjE4W0auB7r-NxQ5Q-7" target="OYHdjE4W0auB7r-NxQ5Q-12">
          <mxGeometry width="50" height="50" relative="1" as="geometry">
            <mxPoint x="310" y="190" as="sourcePoint" />
            <mxPoint x="448" y="142" as="targetPoint" />
          </mxGeometry>
        </mxCell>
        <mxCell id="OYHdjE4W0auB7r-NxQ5Q-16" value="SousChef (hugging face)&lt;div&gt;&lt;br&gt;&lt;/div&gt;" style="rounded=1;whiteSpace=wrap;html=1;" vertex="1" parent="WIyWlLk6GJQsqaUBKTNV-1">
          <mxGeometry x="550" y="410" width="120" height="60" as="geometry" />
        </mxCell>
        <mxCell id="OYHdjE4W0auB7r-NxQ5Q-18" value="" style="endArrow=classic;html=1;rounded=0;entryX=1;entryY=0.5;entryDx=0;entryDy=0;" edge="1" parent="WIyWlLk6GJQsqaUBKTNV-1" target="OYHdjE4W0auB7r-NxQ5Q-12">
          <mxGeometry width="50" height="50" relative="1" as="geometry">
            <mxPoint x="635" y="410" as="sourcePoint" />
            <mxPoint x="585" y="360" as="targetPoint" />
            <Array as="points">
              <mxPoint x="605" y="380" />
            </Array>
          </mxGeometry>
        </mxCell>
        <mxCell id="OYHdjE4W0auB7r-NxQ5Q-19" value="Receipt Collector" style="rounded=1;whiteSpace=wrap;html=1;" vertex="1" parent="WIyWlLk6GJQsqaUBKTNV-1">
          <mxGeometry x="50" y="260" width="110" height="50" as="geometry" />
        </mxCell>
        <mxCell id="OYHdjE4W0auB7r-NxQ5Q-21" style="edgeStyle=orthogonalEdgeStyle;rounded=0;orthogonalLoop=1;jettySize=auto;html=1;exitX=1;exitY=1;exitDx=0;exitDy=0;entryX=0.5;entryY=0;entryDx=0;entryDy=0;entryPerimeter=0;" edge="1" parent="WIyWlLk6GJQsqaUBKTNV-1" source="OYHdjE4W0auB7r-NxQ5Q-19" target="OYHdjE4W0auB7r-NxQ5Q-13">
          <mxGeometry relative="1" as="geometry" />
        </mxCell>
        <mxCell id="OYHdjE4W0auB7r-NxQ5Q-23" value="Past Recipes" style="shape=cylinder3;whiteSpace=wrap;html=1;boundedLbl=1;backgroundOutline=1;size=15;" vertex="1" parent="WIyWlLk6GJQsqaUBKTNV-1">
          <mxGeometry x="395" y="480" width="60" height="80" as="geometry" />
        </mxCell>
        <mxCell id="OYHdjE4W0auB7r-NxQ5Q-25" value="" style="endArrow=classic;startArrow=classic;html=1;rounded=0;entryX=0.446;entryY=1;entryDx=0;entryDy=0;entryPerimeter=0;exitX=0.5;exitY=0;exitDx=0;exitDy=0;exitPerimeter=0;" edge="1" parent="WIyWlLk6GJQsqaUBKTNV-1" source="OYHdjE4W0auB7r-NxQ5Q-23" target="OYHdjE4W0auB7r-NxQ5Q-12">
          <mxGeometry width="50" height="50" relative="1" as="geometry">
            <mxPoint x="405" y="465" as="sourcePoint" />
            <mxPoint x="455" y="415" as="targetPoint" />
          </mxGeometry>
        </mxCell>
        <mxCell id="OYHdjE4W0auB7r-NxQ5Q-27" value="Stock Finder" style="whiteSpace=wrap;html=1;aspect=fixed;" vertex="1" parent="WIyWlLk6GJQsqaUBKTNV-1">
          <mxGeometry x="600" y="120" width="140" height="140" as="geometry" />
        </mxCell>
      </root>
    </mxGraphModel>
  </diagram>
</mxfile>
